<svg id="图层_1" data-name="图层 1" xmlns="http://www.w3.org/2000/svg" viewBox="0 0 122.36 67.25"><defs><style>.cls-1{fill:#717071;}.cls-2{fill:#7f1083;}</style></defs><title>logo</title><g id="_编组_" data-name="&lt;编组&gt;"><path id="_复合路径_" data-name="&lt;复合路径&gt;" class="cls-1" d="M7.35,50.19H8.76a0.19,0.19,0,0,1,.2.22L8.79,51.73A0.19,0.19,0,0,0,9,52h2.25a0.19,0.19,0,0,1,.2.22l-0.13,1a0.26,0.26,0,0,1-.25.22H8.81a0.26,0.26,0,0,0-.25.22L8.39,55.07a0.2,0.2,0,0,0,.23.22q1.22-.18,2.46-0.39a0.19,0.19,0,0,1,.24.22l-0.14,1.1a0.26,0.26,0,0,1-.21.22q-4,.7-8.87,1.12a0.2,0.2,0,0,1-.22-0.19l0-1.18a0.26,0.26,0,0,1,.24-0.25l1-.07a0.26,0.26,0,0,0,.23-0.23l0.51-4.13a0.26,0.26,0,0,1,.25-0.22H5.38a0.19,0.19,0,0,1,.2.22l-0.49,4a0.19,0.19,0,0,0,.22.22l1-.1a0.26,0.26,0,0,0,.23-0.22l0.61-5A0.26,0.26,0,0,1,7.35,50.19ZM6.1,63.81l0.62,0.91a0.25,0.25,0,0,1-.11.34,13,13,0,0,1-2.13,1,25.57,25.57,0,0,1-2.81.78,0.21,0.21,0,0,1-.23-0.1l-0.6-1.2A0.25,0.25,0,0,1,1,65.16a27.8,27.8,0,0,0,2.74-.62,12,12,0,0,0,2.06-.79A0.2,0.2,0,0,1,6.1,63.81Zm4.85-7.19a0.22,0.22,0,0,1,.21,0l1.35,0.69Q10.7,58.17,9,58.81q2.4-.07,4.38-0.22l0.09,0q1-.51,2.12-1.14a0.22,0.22,0,0,1,.24,0l1.1,0.76a0.23,0.23,0,0,1-.07.39,48.5,48.5,0,0,1-6,2.66Q9.74,61.62,8.35,62q3.68-.11,7.35-0.51-0.47-.54-1-1.1A0.23,0.23,0,0,1,14.78,60l1-.51a0.22,0.22,0,0,1,.25,0,34.17,34.17,0,0,1,3,3,0.23,0.23,0,0,1-.08.34l-1.25.76a0.21,0.21,0,0,1-.29,0q-0.3-.43-0.64-0.88a0.2,0.2,0,0,0-.18-0.07q-2.51.28-5.43,0.43a0.26,0.26,0,0,0-.24.22l-0.47,3.87a0.26,0.26,0,0,1-.25.22H8.79a0.19,0.19,0,0,1-.2-0.22l0.46-3.75a0.19,0.19,0,0,0-.2-0.22q-3.16.12-6.73,0.12a0.2,0.2,0,0,1-.2-0.18L1.85,62.09a0.26,0.26,0,0,1,.27-0.26L4,62H4.1a34.24,34.24,0,0,0,5.37-1.58l1.08-.44Q8,60.1,4.31,60.24A0.2,0.2,0,0,1,4.1,60V59.17a0.26,0.26,0,0,1,.25-0.25l1.77,0,0.08,0A34.7,34.7,0,0,0,10.95,56.62Zm1.81-6.43h1.34a0.19,0.19,0,0,1,.2.22l-0.21,1.7a0.2,0.2,0,0,0,.25.22,39.1,39.1,0,0,0,4.51-1.14,0.2,0.2,0,0,1,.24.08l0.61,1a0.24,0.24,0,0,1-.14.35A41.63,41.63,0,0,1,13.84,54l-0.1.83q-0.07.59,0.62,0.59h2.71a1.83,1.83,0,0,0,.85-0.15,2.06,2.06,0,0,0,.54-1.21,0.26,0.26,0,0,1,.31-0.19L20,54.27a0.2,0.2,0,0,1,.13.25A3.62,3.62,0,0,1,19,56.63a3.71,3.71,0,0,1-1.91.36H13.48a1.64,1.64,0,0,1-1.23-.44,1.38,1.38,0,0,1-.35-1.19l0.61-4.95A0.26,0.26,0,0,1,12.75,50.19Zm0.93,13.36a33.79,33.79,0,0,1,4.73,1.69,0.21,0.21,0,0,1,.05.34l-1,1.17a0.24,0.24,0,0,1-.29.07,24.13,24.13,0,0,0-4.49-1.89,0.2,0.2,0,0,1-.08-0.34l0.78-.94A0.25,0.25,0,0,1,13.68,63.55Z" transform="translate(-0.82 -0.38)"/><path id="_复合路径_2" data-name="&lt;复合路径&gt;" class="cls-1" d="M31.9,50.19h1.5a0.25,0.25,0,0,1,.25.29l-0.77,6.3a0.25,0.25,0,0,0,.25.29h7.09a0.25,0.25,0,0,1,.25.29l-0.12,1a0.34,0.34,0,0,1-.32.29H35a0.34,0.34,0,0,0-.32.29l-0.76,6.15q-0.07.59,0.62,0.59H37a0.77,0.77,0,0,0,.65-0.32,9.37,9.37,0,0,0,.64-2.71,0.33,0.33,0,0,1,.4-0.27l1.23,0.36a0.26,0.26,0,0,1,.17.31q-0.64,3.1-1.24,3.66a2.35,2.35,0,0,1-1.82.61H33.61a1.91,1.91,0,0,1-1.37-.45,1.45,1.45,0,0,1-.36-1.25l0.82-6.66a0.25,0.25,0,0,0-.25-0.29H30.22a0.34,0.34,0,0,0-.32.26A12.79,12.79,0,0,1,27.81,64a12.93,12.93,0,0,1-4.93,3.5,0.28,0.28,0,0,1-.35-0.08l-0.78-1.15a0.31,0.31,0,0,1,.17-0.44,11.06,11.06,0,0,0,4.19-2.64A9.43,9.43,0,0,0,28,59a0.26,0.26,0,0,0-.25-0.33h-4.6a0.25,0.25,0,0,1-.25-0.29l0.12-1a0.34,0.34,0,0,1,.32-0.29h7.17a0.34,0.34,0,0,0,.32-0.29l0.77-6.3A0.34,0.34,0,0,1,31.9,50.19ZM27.3,51.54a21.93,21.93,0,0,1,1.56,3.54,0.33,0.33,0,0,1-.2.39l-1.53.59a0.26,0.26,0,0,1-.35-0.16,23.16,23.16,0,0,0-1.42-3.65,0.31,0.31,0,0,1,.21-0.42L27,51.43A0.27,0.27,0,0,1,27.3,51.54ZM38,51.33l1.27,0.59a0.27,0.27,0,0,1,.11.38,25.79,25.79,0,0,1-2.46,3.82,0.32,0.32,0,0,1-.39.1l-1.26-.64a0.27,0.27,0,0,1-.06-0.41,30.09,30.09,0,0,0,2.41-3.69A0.31,0.31,0,0,1,38,51.33Z" transform="translate(-0.82 -0.38)"/><path id="_复合路径_3" data-name="&lt;复合路径&gt;" class="cls-1" d="M84.34,60.62h2.43a0.22,0.22,0,0,0,.18-0.11l0.53-.94a0.21,0.21,0,0,1,.2-0.11L89,59.6q-0.29.55-.56,1h5.2a0.16,0.16,0,0,1,.16.18l-0.13,1a0.22,0.22,0,0,1-.21.18H92.24a0.21,0.21,0,0,0-.19.14,7.41,7.41,0,0,1-1.7,2.64,0.17,0.17,0,0,0,0,.28q0.93,0.47,1.76,1a0.18,0.18,0,0,1,0,.27l-0.82,1a0.19,0.19,0,0,1-.25,0A21.4,21.4,0,0,0,89,66a0.18,0.18,0,0,0-.18,0,14.44,14.44,0,0,1-4.57,1.56,0.17,0.17,0,0,1-.2-0.11l-0.27-1a0.21,0.21,0,0,1,.17-0.25A15.41,15.41,0,0,0,87,65.35a0.19,0.19,0,0,0,0-.34Q86,64.51,84.8,64a0.17,0.17,0,0,1-.05-0.27q0.55-.7,1-1.37A0.17,0.17,0,0,0,85.64,62H84.16A0.16,0.16,0,0,1,84,61.85l0.13-1A0.22,0.22,0,0,1,84.34,60.62ZM85.4,53.9H89a0.22,0.22,0,0,0,.21-0.18l0.37-3a0.22,0.22,0,0,1,.21-0.18h1.12a0.16,0.16,0,0,1,.16.18l-0.37,3a0.16,0.16,0,0,0,.16.18H94.4a0.16,0.16,0,0,1,.16.18l-0.12,1a0.22,0.22,0,0,1-.21.18H91.56a0.2,0.2,0,0,0-.15.33,26.63,26.63,0,0,1,2.2,2.07,0.18,0.18,0,0,1,0,.25l-0.81.93a0.19,0.19,0,0,1-.29,0,22.42,22.42,0,0,0-1.88-2.23,0.2,0.2,0,0,0-.33.14L90,59a0.22,0.22,0,0,1-.21.18H88.69A0.16,0.16,0,0,1,88.52,59l0.35-2.83a14.22,14.22,0,0,1-1.1,1.3h0a14.93,14.93,0,0,1-2.45,1.91,0.17,0.17,0,0,1-.25-0.07l-0.46-.95a0.19,0.19,0,0,1,.09-0.25,12.44,12.44,0,0,0,2.2-1.59,12,12,0,0,0,1.25-1.34H85.24A0.16,0.16,0,0,1,85.07,55l0.12-1A0.22,0.22,0,0,1,85.4,53.9Zm2.08-3.21a10.25,10.25,0,0,1,.89,2.15,0.21,0.21,0,0,1-.13.24l-1,.43a0.16,0.16,0,0,1-.23-0.1,9.62,9.62,0,0,0-.8-2.15A0.2,0.2,0,0,1,86.31,51l1-.37A0.17,0.17,0,0,1,87.48,50.69Zm1.35,13.64,0,0a6.5,6.5,0,0,0,1.61-2A0.17,0.17,0,0,0,90.33,62H87.69a0.22,0.22,0,0,0-.17.1q-0.39.59-.76,1a0.17,0.17,0,0,0,.05.27Q87.85,63.88,88.83,64.33ZM93.6,50.58l0.77,0.48a0.18,0.18,0,0,1,0,.26,11.52,11.52,0,0,1-1.9,2.09,0.19,0.19,0,0,1-.25,0l-0.71-.65a0.18,0.18,0,0,1,0-.27,12,12,0,0,0,1.77-1.85A0.19,0.19,0,0,1,93.6,50.58Zm4.14,0,1.07,0.34a0.17,0.17,0,0,1,.1.23q-0.42,1.09-.93,2.16a0.16,0.16,0,0,0,.14.24h4.69a0.16,0.16,0,0,1,.16.18L102.81,55h-0.93A22.36,22.36,0,0,1,99,62.28c-0.13.22-.27,0.42-0.41,0.61a8.52,8.52,0,0,0,3,3,0.17,0.17,0,0,1,0,.25l-0.71,1a0.21,0.21,0,0,1-.26.07,9.3,9.3,0,0,1-3-2.84,0.17,0.17,0,0,0-.28,0,15.45,15.45,0,0,1-3.89,3,0.18,0.18,0,0,1-.24,0l-0.64-.91a0.19,0.19,0,0,1,.08-0.27,14.18,14.18,0,0,0,4-3.28,0.19,0.19,0,0,0,0-.2,13,13,0,0,1-1.13-4.44A0.22,0.22,0,0,1,95.71,58l1.06-.28a0.16,0.16,0,0,1,.21.14A11.08,11.08,0,0,0,97.66,61,0.19,0.19,0,0,0,98,61a21.23,21.23,0,0,0,2.2-5.77A0.17,0.17,0,0,0,100,55h-2.8a0.22,0.22,0,0,0-.18.12,22.77,22.77,0,0,1-1.88,3,0.2,0.2,0,0,1-.27,0L94,57.41a0.17,0.17,0,0,1,0-.24,19.93,19.93,0,0,0,2-3.17,29.14,29.14,0,0,0,1.55-3.32A0.2,0.2,0,0,1,97.73,50.55Z" transform="translate(-0.82 -0.38)"/><path id="_复合路径_4" data-name="&lt;复合路径&gt;" class="cls-1" d="M49,55.36H44.8a0.33,0.33,0,0,0-.31.28L43.08,67.13a0.24,0.24,0,0,0,.25.28H58.71A0.33,0.33,0,0,0,59,67.13l1.41-11.49a0.24,0.24,0,0,0-.25-0.28H55.64a0.24,0.24,0,0,1-.25-0.28l0.23-1.84A0.33,0.33,0,0,1,55.93,53h5.78A0.33,0.33,0,0,0,62,52.69l0.15-1.22a0.24,0.24,0,0,0-.25-0.28H44.17a0.33,0.33,0,0,0-.31.28L43.7,52.69a0.24,0.24,0,0,0,.25.28h5.32a0.24,0.24,0,0,1,.25.28l-0.23,1.84A0.33,0.33,0,0,1,49,55.36ZM55.44,57h2.69a0.24,0.24,0,0,1,.25.28l-0.44,3.62a0.33,0.33,0,0,1-.31.28H55.34a0.51,0.51,0,0,1-.62-0.61l0.4-3.29A0.33,0.33,0,0,1,55.44,57Zm-3.77-4h1.92a0.24,0.24,0,0,1,.25.28l-0.23,1.84a0.33,0.33,0,0,1-.31.28H51.38a0.24,0.24,0,0,1-.25-0.28l0.23-1.84A0.33,0.33,0,0,1,51.67,53Zm-0.8,4.26,0-.24h2.2a0.24,0.24,0,0,1,.25.28l-0.48,3.9a1.34,1.34,0,0,0,.39,1.31,2.15,2.15,0,0,0,1.42.4h2.73a0.24,0.24,0,0,1,.25.28l-0.3,2.46a0.33,0.33,0,0,1-.31.28H45.37a0.24,0.24,0,0,1-.25-0.28l1-8.35A0.33,0.33,0,0,1,46.46,57h2.59l0,0.24a8.57,8.57,0,0,1-1,3.39A8.14,8.14,0,0,1,45.86,63a0.29,0.29,0,0,0-.07.42l1,1a0.29,0.29,0,0,0,.39,0,10.62,10.62,0,0,0,2.56-3.08A12.13,12.13,0,0,0,50.87,57.22Z" transform="translate(-0.82 -0.38)"/><path id="_路径_" data-name="&lt;路径&gt;" class="cls-1" d="M74.59,52.11H70.92A0.2,0.2,0,0,1,70.73,52a15.43,15.43,0,0,0-.58-1.65,0.2,0.2,0,0,0-.21-0.12l-1.37.16a0.25,0.25,0,0,0-.21.34q0.25,0.51.47,1.07a0.26,0.26,0,0,1-.25.33H65a0.26,0.26,0,0,0-.25.23l-0.15,1.25a0.2,0.2,0,0,0,.2.23h9.61a0.26,0.26,0,0,0,.25-0.23l0.15-1.25A0.2,0.2,0,0,0,74.59,52.11Z" transform="translate(-0.82 -0.38)"/><path id="_路径_2" data-name="&lt;路径&gt;" class="cls-1" d="M73,54.68l-1.22-.4a0.26,0.26,0,0,0-.3.15,30.79,30.79,0,0,1-1.48,3,0.27,0.27,0,0,1-.23.14H68.27a0.2,0.2,0,0,1-.2-0.17,18.29,18.29,0,0,0-.79-3.14A0.2,0.2,0,0,0,67,54.2l-1.33.46a0.25,0.25,0,0,0-.16.31,23.17,23.17,0,0,1,.69,2.34,0.26,0.26,0,0,1-.25.3h-2a0.26,0.26,0,0,0-.25.23l-0.16,1.31a0.2,0.2,0,0,0,.2.23H73.85a0.26,0.26,0,0,0,.25-0.23l0.16-1.31a0.2,0.2,0,0,0-.2-0.23h-2a0.2,0.2,0,0,1-.17-0.32A25.74,25.74,0,0,0,73.08,55,0.21,0.21,0,0,0,73,54.68Z" transform="translate(-0.82 -0.38)"/><path id="_路径_3" data-name="&lt;路径&gt;" class="cls-1" d="M82.38,51.1H75.94a0.26,0.26,0,0,0-.25.23l-2,16a0.2,0.2,0,0,0,.2.23h1.33a0.26,0.26,0,0,0,.25-0.23L77.27,53a0.26,0.26,0,0,1,.25-0.23h2.71a0.2,0.2,0,0,1,.18.29q-1,2.28-2.48,4.92a0.23,0.23,0,0,0,0,.22,18.65,18.65,0,0,1,1.39,2.9,3.11,3.11,0,0,1,.17,1.49,3,3,0,0,1-.35,1.25,1,1,0,0,1-.87.45,9.42,9.42,0,0,1-1.34-.1,0.26,0.26,0,0,0-.29.28l0.22,1.35a0.2,0.2,0,0,0,.21.17q2.44,0,3.15-.85a4.57,4.57,0,0,0,1-2.55A4.1,4.1,0,0,0,81,60.65a8.77,8.77,0,0,0-1.24-2.48,0.22,0.22,0,0,1,0-.23q1.4-2.54,2.71-5.46a0.26,0.26,0,0,0,0-.07l0.13-1.08A0.2,0.2,0,0,0,82.38,51.1Z" transform="translate(-0.82 -0.38)"/><path id="_复合路径_5" data-name="&lt;复合路径&gt;" class="cls-1" d="M63.68,67.21h8A0.26,0.26,0,0,0,72,67L72.7,61.1a0.2,0.2,0,0,0-.2-0.23h-8a0.26,0.26,0,0,0-.25.23L63.48,67A0.2,0.2,0,0,0,63.68,67.21ZM66,62.49h4.5a0.2,0.2,0,0,1,.2.23L70.4,65.36a0.26,0.26,0,0,1-.25.23h-4.5a0.2,0.2,0,0,1-.2-0.23l0.32-2.64A0.26,0.26,0,0,1,66,62.49Z" transform="translate(-0.82 -0.38)"/><path id="_路径_4" data-name="&lt;路径&gt;" class="cls-1" d="M110.75,57.87q-0.68.41-1.36,0.77a0.18,0.18,0,0,1-.27-0.18l0.37-3a0.23,0.23,0,0,1,.22-0.2h1.63a0.23,0.23,0,0,0,.22-0.2l0.14-1.18a0.17,0.17,0,0,0-.17-0.2H109.9a0.17,0.17,0,0,1-.17-0.2l0.38-3.11a0.17,0.17,0,0,0-.17-0.2h-1.37a0.23,0.23,0,0,0-.22.2L108,53.5a0.23,0.23,0,0,1-.22.2h-1.86a0.23,0.23,0,0,0-.22.2l-0.14,1.18a0.17,0.17,0,0,0,.17.2h1.86a0.17,0.17,0,0,1,.17.2l-0.49,4a0.24,0.24,0,0,1-.15.19,11.9,11.9,0,0,1-2.18.59,0.22,0.22,0,0,0-.19.21V62a0.18,0.18,0,0,0,.24.17q0.9-.27,1.76-0.6a0.17,0.17,0,0,1,.24.18l-0.46,3.71a0.63,0.63,0,0,1-.77.46,7,7,0,0,1-1.08-.1,0.23,0.23,0,0,0-.26.23l0.13,1.44a0.17,0.17,0,0,0,.17.16H106a2.32,2.32,0,0,0,1.6-.44,2.1,2.1,0,0,0,.63-1.44l0.62-5a0.22,0.22,0,0,1,.13-0.17q0.9-.43,1.78-1a0.24,0.24,0,0,0,.11-0.17L111,58A0.18,0.18,0,0,0,110.75,57.87Z" transform="translate(-0.82 -0.38)"/><path id="_复合路径_6" data-name="&lt;复合路径&gt;" class="cls-1" d="M116.52,61.56h-2.7a0.23,0.23,0,0,0-.22.2l-0.67,5.43a0.17,0.17,0,0,0,.17.2h7.81a0.23,0.23,0,0,0,.22-0.2l0.67-5.43a0.17,0.17,0,0,0-.17-0.2H118.7a0.17,0.17,0,0,1-.17-0.2l0.19-1.55a0.23,0.23,0,0,1,.22-0.2h3.71a0.23,0.23,0,0,0,.22-0.2L123,58.19a0.17,0.17,0,0,0-.17-0.2h-3.71a0.17,0.17,0,0,1-.17-0.2l0.19-1.55a0.23,0.23,0,0,1,.22-0.2h3a0.23,0.23,0,0,0,.22-0.2l0.59-4.78a0.17,0.17,0,0,0-.17-0.2H113a0.23,0.23,0,0,0-.22.2L112,57.46a32,32,0,0,1-.82,4.18,18.6,18.6,0,0,1-2,4.58,0.18,0.18,0,0,0,0,.23l1.11,1.12a0.21,0.21,0,0,0,.33-0.07,29,29,0,0,0,2.21-5.34c0.27-1,.43-1.46.6-2.34a0.24,0.24,0,0,1,.22-0.19h3.19a0.17,0.17,0,0,1,.17.2l-0.19,1.55A0.23,0.23,0,0,1,116.52,61.56Zm3.38,1.82-0.28,2.24a0.23,0.23,0,0,1-.22.2H115a0.17,0.17,0,0,1-.17-0.2l0.28-2.24a0.23,0.23,0,0,1,.22-0.2h4.42A0.17,0.17,0,0,1,119.9,63.38Zm-5.37-10.8h6.58a0.17,0.17,0,0,1,.17.2l-0.17,1.39a0.23,0.23,0,0,1-.22.2h-6.58a0.17,0.17,0,0,1-.17-0.2l0.17-1.39A0.23,0.23,0,0,1,114.53,52.59ZM113.7,57.8l0.19-1.55a0.23,0.23,0,0,1,.22-0.2h3.09a0.17,0.17,0,0,1,.17.2l-0.19,1.55a0.23,0.23,0,0,1-.22.2h-3.09A0.17,0.17,0,0,1,113.7,57.8Z" transform="translate(-0.82 -0.38)"/></g><g id="_编组_2" data-name="&lt;编组&gt;"><path id="_复合路径_7" data-name="&lt;复合路径&gt;" class="cls-2" d="M87.76,0.38H36.24a6.17,6.17,0,0,0-6.17,6.17V32.7a6.17,6.17,0,0,0,6.17,6.17H87.76a6.17,6.17,0,0,0,6.17-6.17V6.54A6.17,6.17,0,0,0,87.76.38ZM51.85,30.28c-7.85,0-9.22-4.74-8.71-6.81,1-4.26,2.77-8.74,4.33-13.53A1.37,1.37,0,0,1,48.77,9H53.4a0.68,0.68,0,0,1,.65.91c-0.84,2.42-3.1,9-3.58,10.84-0.72,2.71-.1,4.3,2.41,4.3,4,0,4.87-3,6.08-6.47,1-2.86,1.91-5.72,2.75-8.59A1.37,1.37,0,0,1,63,9h4.76a0.68,0.68,0,0,1,.65.9c-0.88,2.58-3.41,10-4.4,13.28C63.07,26.23,59.51,30.28,51.85,30.28ZM80.67,9.86c-2,6-3.38,10.67-5.08,14.93A8.77,8.77,0,0,1,65.21,30,7.45,7.45,0,0,1,62,28.58l0,0A9,9,0,0,0,65,24.31l0.23-.76a3.63,3.63,0,0,0,.74.25,3.18,3.18,0,0,0,3.63-1.29c1.28-1.91,3-8.24,4.47-12.61A1.38,1.38,0,0,1,75.39,9H80A0.68,0.68,0,0,1,80.67,9.86Z" transform="translate(-0.82 -0.38)"/></g></svg>